<?xml version="1.0" standalone="no"?>
<!DOCTYPE svg PUBLIC "-//W3C//DTD SVG 20010904//EN"
 "http://www.w3.org/TR/2001/REC-SVG-20010904/DTD/svg10.dtd">
<svg version="1.0" xmlns="http://www.w3.org/2000/svg"
 width="200.000000pt" height="200.000000pt" viewBox="0 0 200.000000 200.000000"
 preserveAspectRatio="xMidYMid meet">

<g transform="translate(0.000000,200.000000) scale(0.100000,-0.100000)"
fill="#000000" stroke="none">
<path d="M0 1000 l0 -1000 1000 0 1000 0 0 1000 0 1000 -1000 0 -1000 0 0
-1000z m1694 769 c36 -17 54 -65 35 -98 -23 -41 -60 -57 -96 -42 -30 12 -53
46 -53 77 0 9 13 29 29 45 32 32 47 35 85 18z m-138 -20 c10 -17 -13 -36 -27
-22 -12 12 -4 33 11 33 5 0 12 -5 16 -11z m-351 -40 c249 -77 428 -257 506
-509 34 -108 34 -292 0 -400 -78 -254 -256 -432 -511 -511 -108 -34 -293 -34
-400 0 -186 58 -331 167 -427 322 -30 50 -39 58 -58 53 -29 -7 -82 20 -90 47
-10 30 2 65 30 91 24 22 24 25 14 88 -23 140 6 311 76 450 102 200 315 355
539 391 84 13 243 3 321 -22z m445 -1204 c15 -18 10 -45 -12 -59 -35 -22 -74
27 -48 59 16 19 44 19 60 0z"/>
<path d="M1353 1590 c-48 -11 -119 -56 -147 -93 -36 -47 -55 -96 -65 -172 -13
-92 -28 -111 -92 -118 -69 -8 -167 -55 -223 -107 -101 -94 -146 -202 -146
-355 0 -72 -3 -94 -14 -98 -22 -9 -76 10 -104 35 -42 40 -52 71 -52 165 0 98
-14 133 -54 133 -41 0 -51 -25 -50 -129 0 -116 14 -161 67 -219 81 -87 78 -87
450 -90 327 -3 327 -3 327 18 0 37 -44 70 -92 70 l-42 0 31 33 c17 17 34 40
39 49 8 14 21 0 73 -77 l63 -95 59 0 c42 0 61 4 65 14 8 20 -13 55 -39 65 -18
7 -28 29 -49 101 l-27 92 23 36 c38 59 49 106 43 185 -3 40 -9 86 -12 103 -7
30 -6 31 35 38 49 8 105 56 116 100 5 21 1 32 -18 49 -15 14 -29 44 -36 79
-10 43 -21 64 -47 86 -18 16 -39 32 -45 34 -10 3 -10 9 -1 25 13 25 15 54 4
52 -5 -1 -22 -4 -40 -9z m2 -60 c-5 -24 -3 -31 12 -36 61 -20 64 -24 98 -132
11 -37 13 -58 6 -66 -7 -9 -6 -19 4 -33 13 -18 12 -22 -5 -38 -11 -10 -39 -20
-64 -22 -40 -5 -46 -9 -51 -34 -4 -16 -1 -46 6 -66 23 -71 15 -149 -24 -225
l-36 -69 30 -97 c16 -53 36 -101 43 -107 8 -5 23 -15 33 -22 15 -10 11 -12
-27 -12 l-45 0 -51 77 c-30 44 -65 116 -84 169 -26 74 -40 100 -71 128 -37 33
-59 44 -59 28 0 -3 18 -21 39 -40 54 -46 78 -117 61 -179 -16 -57 -75 -111
-130 -120 -24 -4 -40 -12 -40 -20 0 -11 21 -14 93 -14 66 0 99 -4 113 -15 17
-13 -15 -14 -284 -15 -334 0 -346 2 -411 63 -58 55 -81 118 -81 224 0 64 4 93
13 96 28 10 37 -6 37 -64 0 -49 -3 -59 -17 -60 -17 -1 -17 -2 0 -6 11 -3 17
-14 17 -33 0 -89 83 -170 174 -170 19 0 38 6 43 12 4 7 10 65 13 129 5 108 7
120 43 191 63 129 180 214 308 225 57 6 61 8 78 42 10 20 21 59 25 86 16 112
53 181 123 225 61 39 77 39 68 0z"/>
<path d="M1360 1362 c0 -10 5 -23 12 -30 18 -18 48 -15 48 6 0 10 -5 23 -12
30 -18 18 -48 15 -48 -6z"/>
<path d="M981 981 c-14 -4 -27 -13 -29 -20 -3 -9 2 -11 14 -8 11 4 31 9 46 13
16 3 25 10 22 15 -6 10 -18 10 -53 0z"/>
<path d="M892 938 c-12 -12 -17 -38 -7 -38 8 0 45 34 45 42 0 12 -25 9 -38 -4z"/>
</g>
</svg>
